<?xml version="1.0" standalone="no"?>
<!DOCTYPE svg PUBLIC "-//W3C//DTD SVG 20010904//EN"
 "http://www.w3.org/TR/2001/REC-SVG-20010904/DTD/svg10.dtd">
<svg version="1.0" xmlns="http://www.w3.org/2000/svg"
 width="32.000000pt" height="32.000000pt" viewBox="0 0 32.000000 32.000000"
 preserveAspectRatio="xMidYMid meet">

<g transform="translate(0.000000,32.000000) scale(0.100000,-0.100000)"
fill="#000000" stroke="none">
<path d="M80 273 c0 -5 16 -8 35 -8 19 0 35 3 35 8 0 4 -16 7 -35 7 -19 0 -35
-3 -35 -7z"/>
<path d="M198 245 c-3 -3 -3 -17 0 -30 5 -30 32 -34 32 -5 0 12 7 20 18 20 14
0 15 2 2 10 -16 11 -44 13 -52 5z"/>
<path d="M100 220 c0 -11 7 -20 15 -20 8 0 15 9 15 20 0 11 -7 20 -15 20 -8 0
-15 -9 -15 -20z"/>
<path d="M130 141 c0 -5 16 -11 35 -13 39 -4 48 6 13 16 -32 8 -48 7 -48 -3z"/>
</g>
</svg>
